 <svg width="32" height="29" viewBox="0 0 32 29" fill="none" xmlns="http://www.w3.org/2000/svg">
  <!-- {/* White background for masking */} -->
  <path d="M3.39569 22.3341L16.0651 9.79529L28.7346 22.3341L25.9917 25.077L25.9917 28.4729L6.13856 28.4729L6.13856 25.077L3.39569 22.3341Z" fill="white"/>
  <path d="M25.9917 25.077L25.9917 28.4729L18.0243 28.4729L18.0243 17.2402L25.9917 25.077Z" fill="white"/>
  <path d="M6.13856 25.077L6.13856 28.4729L13.9753 28.4729L13.9753 17.2402L6.13856 25.077Z" fill="white"/>
  <!-- {/* Additional white areas for the lower corners */} -->
  <path d="M3.39569 22.3341L6.13856 25.077L6.13856 28.4729L0 28.4729L0 22.3341L3.39569 22.3341Z" fill="white"/>
  <path d="M28.7346 22.3341L25.9917 25.077L25.9917 28.4729L32 28.4729L32 22.3341L28.7346 22.3341Z" fill="white"/>
  <!-- {/* White rectangle at bottom */} -->
  <rect x="0" y="28.4729" width="32" height="0.5271" fill="white"/>
  <!-- {/* Black arrow */} -->
  <path d="M3.39569 22.3341L16.0651 9.79529L28.7346 22.3341L25.9917 25.077L18.0243 17.2402V28.4729H13.9753V17.2402L6.13856 25.077L3.39569 22.3341Z" fill="black"/>
</svg>