<svg xmlns="http://www.w3.org/2000/svg" width="96" height="96" viewBox="0 0 96 96" fill="none">
  <g clip-path="url(#clip0_2878_58199)">
    <rect x="-1.89453" y="-1.89062" width="20.0714" height="20.0714" stroke="#F6F6F6" stroke-width="0.5"/>
    <rect x="18.0352" y="-1.89062" width="20.0714" height="20.0714" stroke="#F6F6F6" stroke-width="0.5"/>
    <rect x="37.9629" y="-1.89062" width="20.0714" height="20.0714" stroke="#F6F6F6" stroke-width="0.5"/>
    <rect x="57.8926" y="-1.89062" width="20.0714" height="20.0714" stroke="#F6F6F6" stroke-width="0.5"/>
    <rect x="77.8203" y="-1.89062" width="20.0714" height="20.0714" stroke="#F6F6F6" stroke-width="0.5"/>
    <rect x="-1.89453" y="18.0391" width="20.0714" height="20.0714" stroke="#F6F6F6" stroke-width="0.5"/>
    <rect x="18.0352" y="18.0391" width="20.0714" height="20.0714" stroke="#F6F6F6" stroke-width="0.5"/>
    <rect x="37.9629" y="18.0391" width="20.0714" height="20.0714" stroke="#F6F6F6" stroke-width="0.5"/>
    <rect x="57.8926" y="18.0391" width="20.0714" height="20.0714" stroke="#F6F6F6" stroke-width="0.5"/>
    <rect x="77.8203" y="18.0391" width="20.0714" height="20.0714" stroke="#F6F6F6" stroke-width="0.5"/>
    <rect x="-1.89453" y="37.9648" width="20.0714" height="20.0714" stroke="#F6F6F6" stroke-width="0.5"/>
    <rect x="18.0352" y="37.9648" width="20.0714" height="20.0714" stroke="#F6F6F6" stroke-width="0.5"/>
    <rect x="37.9629" y="37.9648" width="20.0714" height="20.0714" stroke="#F6F6F6" stroke-width="0.5"/>
    <rect x="57.8926" y="37.9648" width="20.0714" height="20.0714" stroke="#F6F6F6" stroke-width="0.5"/>
    <rect x="77.8203" y="37.9648" width="20.0714" height="20.0714" stroke="#F6F6F6" stroke-width="0.5"/>
    <rect x="-1.89453" y="57.8945" width="20.0714" height="20.0714" stroke="#F6F6F6" stroke-width="0.5"/>
    <rect x="18.0352" y="57.8945" width="20.0714" height="20.0714" stroke="#F6F6F6" stroke-width="0.5"/>
    <rect x="37.9629" y="57.8945" width="20.0714" height="20.0714" stroke="#F6F6F6" stroke-width="0.5"/>
    <rect x="57.8926" y="57.8945" width="20.0714" height="20.0714" stroke="#F6F6F6" stroke-width="0.5"/>
    <rect x="77.8203" y="57.8945" width="20.0714" height="20.0714" stroke="#F6F6F6" stroke-width="0.5"/>
    <rect x="-1.89453" y="77.8203" width="20.0714" height="20.0714" stroke="#F6F6F6" stroke-width="0.5"/>
    <rect x="18.0352" y="77.8203" width="20.0714" height="20.0714" stroke="#F6F6F6" stroke-width="0.5"/>
    <rect x="37.9629" y="77.8203" width="20.0714" height="20.0714" stroke="#F6F6F6" stroke-width="0.5"/>
    <rect x="57.8926" y="77.8203" width="20.0714" height="20.0714" stroke="#F6F6F6" stroke-width="0.5"/>
    <rect x="77.8203" y="77.8203" width="20.0714" height="20.0714" stroke="#F6F6F6" stroke-width="0.5"/>
  </g>
  <defs>
    <clipPath id="clip0_2878_58199">
      <rect width="95.1429" height="95.1429" fill="white" transform="translate(0.427734 0.429688)"/>
    </clipPath>
  </defs>
</svg>